<svg width="64" height="19" viewBox="0 0 64 19" fill="none" xmlns="http://www.w3.org/2000/svg">
<path d="M0.256 18V1.2H7.168C8.656 1.2 9.928 1.44 10.984 1.92C12.056 2.4 12.88 3.088 13.456 3.984C14.032 4.88 14.32 5.944 14.32 7.176C14.32 8.408 14.032 9.472 13.456 10.368C12.88 11.264 12.056 11.952 10.984 12.432C9.928 12.912 8.656 13.152 7.168 13.152H1.984L3.376 11.688V18H0.256ZM3.376 12.024L1.984 10.512H7.024C8.4 10.512 9.432 10.224 10.12 9.648C10.824 9.056 11.176 8.232 11.176 7.176C11.176 6.104 10.824 5.28 10.12 4.704C9.432 4.128 8.4 3.84 7.024 3.84H1.984L3.376 2.304V12.024ZM17.3821 18V0.191999H20.3821V18H17.3821ZM32.2156 18V15.408L32.0476 14.856V10.32C32.0476 9.44 31.7836 8.76 31.2556 8.28C30.7276 7.784 29.9276 7.536 28.8556 7.536C28.1356 7.536 27.4236 7.648 26.7196 7.872C26.0316 8.096 25.4476 8.408 24.9676 8.808L23.7916 6.624C24.4796 6.096 25.2956 5.704 26.2396 5.448C27.1996 5.176 28.1916 5.04 29.2156 5.04C31.0716 5.04 32.5036 5.488 33.5116 6.384C34.5356 7.264 35.0476 8.632 35.0476 10.488V18H32.2156ZM28.1836 18.168C27.2236 18.168 26.3836 18.008 25.6636 17.688C24.9436 17.352 24.3836 16.896 23.9836 16.32C23.5996 15.728 23.4076 15.064 23.4076 14.328C23.4076 13.608 23.5756 12.96 23.9116 12.384C24.2636 11.808 24.8316 11.352 25.6156 11.016C26.3996 10.68 27.4396 10.512 28.7356 10.512H32.4556V12.504H28.9516C27.9276 12.504 27.2396 12.672 26.8876 13.008C26.5356 13.328 26.3596 13.728 26.3596 14.208C26.3596 14.752 26.5756 15.184 27.0076 15.504C27.4396 15.824 28.0396 15.984 28.8076 15.984C29.5436 15.984 30.1996 15.816 30.7756 15.48C31.3676 15.144 31.7916 14.648 32.0476 13.992L32.5516 15.792C32.2636 16.544 31.7436 17.128 30.9916 17.544C30.2556 17.96 29.3196 18.168 28.1836 18.168ZM46.1697 5.04C47.1937 5.04 48.1057 5.24 48.9057 5.64C49.7217 6.04 50.3617 6.656 50.8257 7.488C51.2897 8.304 51.5217 9.36 51.5217 10.656V18H48.5217V11.04C48.5217 9.904 48.2497 9.056 47.7057 8.496C47.1777 7.936 46.4337 7.656 45.4737 7.656C44.7697 7.656 44.1457 7.8 43.6017 8.088C43.0577 8.376 42.6337 8.808 42.3297 9.384C42.0417 9.944 41.8977 10.656 41.8977 11.52V18H38.8977V5.184H41.7537V8.64L41.2497 7.584C41.6977 6.768 42.3457 6.144 43.1937 5.712C44.0577 5.264 45.0497 5.04 46.1697 5.04ZM60.1514 18.168C58.7434 18.168 57.6554 17.808 56.8874 17.088C56.1194 16.352 55.7354 15.272 55.7354 13.848V2.352H58.7354V13.776C58.7354 14.384 58.8874 14.856 59.1914 15.192C59.5114 15.528 59.9514 15.696 60.5114 15.696C61.1834 15.696 61.7434 15.52 62.1914 15.168L63.0314 17.304C62.6794 17.592 62.2474 17.808 61.7354 17.952C61.2234 18.096 60.6954 18.168 60.1514 18.168ZM53.6234 7.68V5.28H62.1674V7.68H53.6234Z" fill="#1A1A1A"/>
</svg>
